<svg width="299" height="758" viewBox="0 0 299 758" fill="none" xmlns="http://www.w3.org/2000/svg">
<path d="M288 10C288.552 10 289 10.4477 289 11V746.47C289 747.464 287.706 747.849 287.163 747.016L150.337 537.359C149.943 536.754 149.057 536.754 148.663 537.359L11.8374 747.016C11.2939 747.849 10 747.464 10 746.47V11C10 10.4477 10.4477 10 11 10H149.5H288Z" fill="#D9D9D9"/>
<path d="M234.25 376.75H149.5H64.75M149.5 10H11C10.4477 10 10 10.4477 10 11V746.47C10 747.464 11.2939 747.849 11.8374 747.016L148.663 537.359C149.057 536.754 149.943 536.754 150.337 537.359L287.163 747.016C287.706 747.849 289 747.464 289 746.47V11C289 10.4477 288.552 10 288 10H149.5Z" stroke="black" stroke-width="20"/>
</svg>
